<svg id="visual" viewBox="0 0 960 540" width="960" height="540" xmlns="http://www.w3.org/2000/svg" xmlns:xlink="http://www.w3.org/1999/xlink" version="1.1"><path d="M0 147L13.3 148.8C26.7 150.7 53.3 154.3 80 156.2C106.7 158 133.3 158 160 157C186.7 156 213.3 154 240 150.3C266.7 146.7 293.3 141.3 320 145C346.7 148.7 373.3 161.3 400 167.7C426.7 174 453.3 174 480 174.8C506.7 175.7 533.3 177.3 560 177.3C586.7 177.3 613.3 175.7 640 167.7C666.7 159.7 693.3 145.3 720 148.8C746.7 152.3 773.3 173.7 800 179C826.7 184.3 853.3 173.7 880 167.5C906.7 161.3 933.3 159.7 946.7 158.8L960 158L960 0L946.7 0C933.3 0 906.7 0 880 0C853.3 0 826.7 0 800 0C773.3 0 746.7 0 720 0C693.3 0 666.7 0 640 0C613.3 0 586.7 0 560 0C533.3 0 506.7 0 480 0C453.3 0 426.7 0 400 0C373.3 0 346.7 0 320 0C293.3 0 266.7 0 240 0C213.3 0 186.7 0 160 0C133.3 0 106.7 0 80 0C53.3 0 26.7 0 13.3 0L0 0Z" fill="#ababab"></path><path d="M0 244L13.3 244.8C26.7 245.7 53.3 247.3 80 250C106.7 252.7 133.3 256.3 160 255.5C186.7 254.7 213.3 249.3 240 243C266.7 236.7 293.3 229.3 320 233.8C346.7 238.3 373.3 254.7 400 260.2C426.7 265.7 453.3 260.3 480 257.7C506.7 255 533.3 255 560 255.8C586.7 256.7 613.3 258.3 640 255.7C666.7 253 693.3 246 720 248.7C746.7 251.3 773.3 263.7 800 266.3C826.7 269 853.3 262 880 257.5C906.7 253 933.3 251 946.7 250L960 249L960 156L946.7 156.8C933.3 157.7 906.7 159.3 880 165.5C853.3 171.7 826.7 182.3 800 177C773.3 171.7 746.7 150.3 720 146.8C693.3 143.3 666.7 157.7 640 165.7C613.3 173.7 586.7 175.3 560 175.3C533.3 175.3 506.7 173.7 480 172.8C453.3 172 426.7 172 400 165.7C373.3 159.3 346.7 146.7 320 143C293.3 139.3 266.7 144.7 240 148.3C213.3 152 186.7 154 160 155C133.3 156 106.7 156 80 154.2C53.3 152.3 26.7 148.7 13.3 146.8L0 145Z" fill="#999999"></path><path d="M0 320L13.3 320.8C26.7 321.7 53.3 323.3 80 322.3C106.7 321.3 133.3 317.7 160 315.8C186.7 314 213.3 314 240 310.5C266.7 307 293.3 300 320 304.5C346.7 309 373.3 325 400 329.5C426.7 334 453.3 327 480 325.2C506.7 323.3 533.3 326.7 560 328.3C586.7 330 613.3 330 640 326.5C666.7 323 693.3 316 720 316C746.7 316 773.3 323 800 323.8C826.7 324.7 853.3 319.3 880 318.5C906.7 317.7 933.3 321.3 946.7 323.2L960 325L960 247L946.7 248C933.3 249 906.7 251 880 255.5C853.3 260 826.7 267 800 264.3C773.3 261.7 746.7 249.3 720 246.7C693.3 244 666.7 251 640 253.7C613.3 256.3 586.7 254.7 560 253.8C533.3 253 506.7 253 480 255.7C453.3 258.3 426.7 263.7 400 258.2C373.3 252.7 346.7 236.3 320 231.8C293.3 227.3 266.7 234.7 240 241C213.3 247.3 186.7 252.7 160 253.5C133.3 254.3 106.7 250.7 80 248C53.3 245.3 26.7 243.7 13.3 242.8L0 242Z" fill="#888888"></path><path d="M0 476L13.3 475.2C26.7 474.3 53.3 472.7 80 471.8C106.7 471 133.3 471 160 468.3C186.7 465.7 213.3 460.3 240 459.3C266.7 458.3 293.3 461.7 320 466.2C346.7 470.7 373.3 476.3 400 474.7C426.7 473 453.3 464 480 459.5C506.7 455 533.3 455 560 455.8C586.7 456.7 613.3 458.3 640 459.2C666.7 460 693.3 460 720 460C746.7 460 773.3 460 800 459.2C826.7 458.3 853.3 456.7 880 459.3C906.7 462 933.3 469 946.7 472.5L960 476L960 323L946.7 321.2C933.3 319.3 906.7 315.7 880 316.5C853.3 317.3 826.7 322.7 800 321.8C773.3 321 746.7 314 720 314C693.3 314 666.7 321 640 324.5C613.3 328 586.7 328 560 326.3C533.3 324.7 506.7 321.3 480 323.2C453.3 325 426.7 332 400 327.5C373.3 323 346.7 307 320 302.5C293.3 298 266.7 305 240 308.5C213.3 312 186.7 312 160 313.8C133.3 315.7 106.7 319.3 80 320.3C53.3 321.3 26.7 319.7 13.3 318.8L0 318Z" fill="#767676"></path><path d="M0 541L13.3 541C26.7 541 53.3 541 80 541C106.7 541 133.3 541 160 541C186.7 541 213.3 541 240 541C266.7 541 293.3 541 320 541C346.7 541 373.3 541 400 541C426.7 541 453.3 541 480 541C506.7 541 533.3 541 560 541C586.7 541 613.3 541 640 541C666.7 541 693.3 541 720 541C746.7 541 773.3 541 800 541C826.7 541 853.3 541 880 541C906.7 541 933.3 541 946.7 541L960 541L960 474L946.7 470.5C933.3 467 906.7 460 880 457.3C853.3 454.7 826.7 456.3 800 457.2C773.3 458 746.7 458 720 458C693.3 458 666.7 458 640 457.2C613.3 456.3 586.7 454.7 560 453.8C533.3 453 506.7 453 480 457.5C453.3 462 426.7 471 400 472.7C373.3 474.3 346.7 468.7 320 464.2C293.3 459.7 266.7 456.3 240 457.3C213.3 458.3 186.7 463.7 160 466.3C133.3 469 106.7 469 80 469.8C53.3 470.7 26.7 472.3 13.3 473.2L0 474Z" fill="#646464"></path></svg>